<svg width="25" height="23" viewBox="0 0 25 23" fill="none" xmlns="http://www.w3.org/2000/svg">
<path fill-rule="evenodd" clip-rule="evenodd" d="M1.97861 4.84144V18.1881C1.98102 18.9121 2.26202 19.6053 2.75976 20.1153C3.2575 20.6253 3.93117 20.9102 4.63247 20.9073H20.5556C21.2569 20.9102 21.9306 20.6253 22.4284 20.1153C22.9261 19.6053 23.2071 18.9121 23.2095 18.1881V4.84144C23.2071 4.11752 22.9261 3.42426 22.4284 2.91428C21.9306 2.4043 21.2569 2.11941 20.5556 2.12232H4.63247C3.93117 2.11941 3.2575 2.4043 2.75976 2.91428C2.26202 3.42426 1.98102 4.11752 1.97861 4.84144Z" stroke="black" stroke-width="2.30939" stroke-linecap="round" stroke-linejoin="round"/>
<path d="M23.2095 9.70491C23.8472 9.70491 24.3642 9.18794 24.3642 8.55022C24.3642 7.9125 23.8472 7.39552 23.2095 7.39552V9.70491ZM1.9786 7.39552C1.34088 7.39552 0.823902 7.9125 0.823902 8.55022C0.823902 9.18794 1.34088 9.70491 1.9786 9.70491V7.39552ZM13.921 14.5238C14.5587 14.5238 15.0757 14.0068 15.0757 13.3691C15.0757 12.7314 14.5587 12.2144 13.921 12.2144V14.5238ZM1.9786 12.2144C1.34088 12.2144 0.823902 12.7314 0.823902 13.3691C0.823902 14.0068 1.34088 14.5238 1.9786 14.5238V12.2144ZM19.2287 14.5238C19.8664 14.5238 20.3834 14.0068 20.3834 13.3691C20.3834 12.7314 19.8664 12.2144 19.2287 12.2144V14.5238ZM17.9018 12.2144C17.2641 12.2144 16.7471 12.7314 16.7471 13.3691C16.7471 14.0068 17.2641 14.5238 17.9018 14.5238V12.2144ZM23.2095 7.39552H1.9786V9.70491H23.2095V7.39552ZM13.921 12.2144H1.9786V14.5238H13.921V12.2144ZM19.2287 12.2144H17.9018V14.5238H19.2287V12.2144Z" fill="black"/>
</svg>
