<svg width="20" height="24" viewBox="0 0 20 24" fill="none" xmlns="http://www.w3.org/2000/svg">
<path d="M0.817968 5.94474C0.23323 6.53158 0.234929 7.48132 0.821763 8.06606C1.4086 8.6508 2.35834 8.6491 2.94308 8.06226L0.817968 5.94474ZM6.76547 2.10105H8.26547C8.26547 1.49387 7.89942 0.946576 7.33825 0.714719C6.77708 0.482863 6.13148 0.612181 5.70291 1.04229L6.76547 2.10105ZM5.26547 21.7109C5.26547 22.5393 5.93704 23.2109 6.76547 23.2109C7.59389 23.2109 8.26547 22.5393 8.26547 21.7109H5.26547ZM19.2263 17.8673C19.811 17.2804 19.8093 16.3307 19.2225 15.746C18.6356 15.1612 17.6859 15.1629 17.1011 15.7498L19.2263 17.8673ZM13.2788 21.711H11.7788C11.7788 22.3182 12.1448 22.8654 12.706 23.0973C13.2671 23.3292 13.9127 23.1998 14.3413 22.7697L13.2788 21.711ZM14.7788 2.10116C14.7788 1.27273 14.1072 0.601161 13.2788 0.601161C12.4503 0.601161 11.7788 1.27273 11.7788 2.10116H14.7788ZM2.94308 8.06226L7.82802 3.15981L5.70291 1.04229L0.817968 5.94474L2.94308 8.06226ZM5.26547 2.10105V21.7109H8.26547V2.10105H5.26547ZM17.1011 15.7498L12.2162 20.6522L14.3413 22.7697L19.2263 17.8673L17.1011 15.7498ZM14.7788 21.711V2.10116H11.7788V21.711H14.7788Z" fill="black"/>
</svg>
